<svg width="100" height="35" viewBox="0 0 100 35" fill="none" xmlns="http://www.w3.org/2000/svg">
<path d="M52.4428 17.5944L49.6428 12.335C49.0626 12.3602 48.5455 12.3729 48.0915 12.3729H47.5617V17.5944H45.4996V3.68915H48.659C50.2608 3.68915 51.5788 4.02338 52.613 4.69184C53.6473 5.34769 54.1644 6.41975 54.1644 7.90803C54.1644 8.84135 53.9437 9.64855 53.5022 10.3296C53.0734 10.9981 52.4302 11.5152 51.5725 11.881L54.8833 17.5944H52.4428ZM48.905 10.6512C50.141 10.6512 50.986 10.3864 51.4401 9.85666C51.9067 9.31432 52.1401 8.67109 52.1401 7.92695C52.1401 6.27471 51.0365 5.44859 48.8293 5.44859H47.5617V10.6512H48.905Z" fill="#14D9C1"/>
<path d="M60.3953 17.7836C59.4998 17.7836 58.7052 17.5818 58.0115 17.1782C57.3178 16.7746 56.7818 16.226 56.4034 15.5323C56.0251 14.8386 55.8359 14.0692 55.8359 13.2242C55.8359 12.3918 56.0188 11.6287 56.3845 10.935C56.7629 10.2413 57.2989 9.6927 57.9926 9.2891C58.6863 8.8855 59.4872 8.6837 60.3953 8.6837C61.3034 8.6837 62.098 8.8855 62.7791 9.2891C63.4727 9.6927 64.0025 10.2413 64.3682 10.935C64.7466 11.6287 64.9358 12.3918 64.9358 13.2242C64.9358 14.0692 64.7466 14.8386 64.3682 15.5323C63.9899 16.226 63.4538 16.7746 62.7601 17.1782C62.0791 17.5818 61.2908 17.7836 60.3953 17.7836ZM60.4521 16.1188C61.1836 16.1188 61.7575 15.8476 62.1737 15.3053C62.6025 14.7629 62.8169 14.0818 62.8169 13.262C62.8169 12.4422 62.5899 11.7548 62.1358 11.1999C61.6818 10.6323 61.0827 10.3485 60.3385 10.3485C59.6196 10.3485 59.0395 10.626 58.598 11.181C58.1692 11.7359 57.9548 12.4296 57.9548 13.262C57.9548 14.0692 58.1881 14.7503 58.6548 15.3053C59.1214 15.8476 59.7205 16.1188 60.4521 16.1188Z" fill="#14D9C1"/>
<path d="M71.6961 17.7836C70.9898 17.7836 70.3529 17.6133 69.7854 17.2728C69.2304 16.9197 68.8457 16.5161 68.6313 16.062L68.5935 17.5944H66.6259V3.68915H68.6313V9.04315L68.5367 10.5188C68.7511 10.0143 69.1673 9.58549 69.7854 9.23234C70.416 8.86658 71.0971 8.6837 71.8286 8.6837C72.6862 8.6837 73.4304 8.87919 74.061 9.27018C74.7042 9.64855 75.1961 10.1846 75.5367 10.8783C75.8772 11.5593 76.0475 12.3539 76.0475 13.262C76.0475 14.1827 75.8457 14.9836 75.4421 15.6647C75.0511 16.3458 74.5213 16.8692 73.8529 17.235C73.197 17.6007 72.4781 17.7836 71.6961 17.7836ZM71.3556 16.0809C72.1754 16.0809 72.806 15.8224 73.2475 15.3053C73.6889 14.7755 73.9096 14.0945 73.9096 13.262C73.9096 12.417 73.6889 11.7359 73.2475 11.2188C72.8187 10.6891 72.188 10.4242 71.3556 10.4242C70.6367 10.4242 70.0313 10.6765 69.5394 11.181C69.0475 11.6729 68.8016 12.3224 68.8016 13.1296V13.262C68.8016 13.8044 68.9151 14.29 69.1421 14.7188C69.3818 15.1476 69.6908 15.4818 70.0691 15.7215C70.4601 15.9611 70.8889 16.0809 71.3556 16.0809Z" fill="#14D9C1"/>
<path d="M81.7077 17.7836C80.8122 17.7836 80.0176 17.5818 79.324 17.1782C78.6303 16.7746 78.0942 16.226 77.7159 15.5323C77.3375 14.8386 77.1483 14.0692 77.1483 13.2242C77.1483 12.3918 77.3312 11.6287 77.6969 10.935C78.0753 10.2413 78.6113 9.6927 79.305 9.2891C79.9987 8.8855 80.7996 8.6837 81.7077 8.6837C82.6158 8.6837 83.4104 8.8855 84.0915 9.2891C84.7852 9.6927 85.3149 10.2413 85.6807 10.935C86.059 11.6287 86.2482 12.3918 86.2482 13.2242C86.2482 14.0692 86.059 14.8386 85.6807 15.5323C85.3023 16.226 84.7662 16.7746 84.0726 17.1782C83.3915 17.5818 82.6032 17.7836 81.7077 17.7836ZM81.7645 16.1188C82.496 16.1188 83.0699 15.8476 83.4861 15.3053C83.9149 14.7629 84.1293 14.0818 84.1293 13.262C84.1293 12.4422 83.9023 11.7548 83.4482 11.1999C82.9942 10.6323 82.3951 10.3485 81.651 10.3485C80.932 10.3485 80.3519 10.626 79.9104 11.181C79.4816 11.7359 79.2672 12.4296 79.2672 13.262C79.2672 14.0692 79.5005 14.7503 79.9672 15.3053C80.4339 15.8476 81.0329 16.1188 81.7645 16.1188Z" fill="#14D9C1"/>
<path d="M87.9762 3.68915H95.7329V5.52427H90.0762V9.45937H94.7491V11.3134H90.0762V17.5944H87.9762V3.68915Z" fill="#14D9C1"/>
<path d="M97.1379 8.91072H99.2568V17.5944H97.1379V8.91072ZM98.1784 7.28371C97.7874 7.28371 97.4595 7.15128 97.1946 6.88642C96.9298 6.62155 96.7973 6.29363 96.7973 5.90264C96.7973 5.54949 96.9298 5.24679 97.1946 4.99454C97.4595 4.74229 97.7874 4.61617 98.1784 4.61617C98.5568 4.61617 98.8784 4.74229 99.1433 4.99454C99.4081 5.24679 99.5406 5.54949 99.5406 5.90264C99.5406 6.29363 99.4081 6.62155 99.1433 6.88642C98.891 7.15128 98.5694 7.28371 98.1784 7.28371Z" fill="#14D9C1"/>
<path d="M55.8144 34.9713C55.1712 34.9713 54.5333 34.8587 53.9008 34.6336C53.2683 34.4085 52.8127 34.1565 52.5339 33.8778L53.3862 32.3501C53.6113 32.5538 53.9598 32.7682 54.4315 32.9933C54.9139 33.2078 55.3749 33.315 55.8144 33.315C56.3826 33.315 56.8436 33.181 57.1974 32.9129C57.5619 32.6449 57.7441 32.2751 57.7441 31.8034C57.7441 31.4389 57.6477 31.1226 57.4547 30.8546C57.2617 30.5866 57.0259 30.3668 56.7471 30.1953C56.4684 30.013 56.0717 29.7932 55.5571 29.5359C54.9461 29.2358 54.528 29.0106 54.3028 28.8605C53.2629 28.1637 52.743 27.1988 52.743 25.966C52.743 24.9475 53.0807 24.1703 53.7561 23.6342C54.4315 23.0875 55.2838 22.8141 56.3129 22.8141C57.4172 22.8141 58.3552 23.1304 59.1271 23.7629L58.2748 25.2263C58.0711 25.0118 57.7817 24.8296 57.4064 24.6795C57.0419 24.5187 56.6506 24.4383 56.2325 24.4383C55.6965 24.4383 55.273 24.5616 54.9621 24.8081C54.662 25.044 54.5119 25.3978 54.5119 25.8695C54.5119 26.2018 54.6084 26.502 54.8013 26.77C54.9943 27.0273 55.2355 27.2525 55.525 27.4454C55.8251 27.6384 56.2272 27.8742 56.731 28.153C57.2135 28.421 57.5833 28.6354 57.8406 28.7962C58.0979 28.9463 58.3391 29.1286 58.5643 29.343C58.8752 29.6217 59.1271 29.954 59.3201 30.34C59.513 30.7259 59.6095 31.1494 59.6095 31.6104C59.6095 32.3287 59.4434 32.9397 59.111 33.4436C58.7894 33.9475 58.3391 34.3281 57.7602 34.5854C57.192 34.8427 56.5434 34.9713 55.8144 34.9713Z" fill="#14D9C1"/>
<path d="M62.5908 22.991H65.4371C67.8171 22.991 69.4788 23.5538 70.4222 24.6795C71.3763 25.8052 71.8534 27.1452 71.8534 28.6997C71.8534 29.7825 71.6497 30.7849 71.2423 31.7069C70.8349 32.6181 70.1595 33.3632 69.2161 33.9421C68.2834 34.521 67.0559 34.8105 65.5336 34.8105H62.5908V22.991ZM65.7266 33.2185C67.206 33.2185 68.2781 32.8004 68.9428 31.9642C69.6182 31.1172 69.9559 30.0559 69.9559 28.7801C69.9559 27.5365 69.6182 26.5234 68.9428 25.7408C68.2674 24.9582 67.1953 24.5669 65.7266 24.5669H64.3918V33.2185H65.7266Z" fill="#14D9C1"/>
<path d="M74.6913 22.991H79.8694V24.5669H76.4763V27.8314H79.2101V29.4395H76.4763V33.2185H80.4V34.8105H74.6913V22.991Z" fill="#14D9C1"/>
<path d="M85.7839 28.6515L82.3747 22.991H84.5457L86.7809 27.1238L89.0805 22.991H91.2032L87.7779 28.6193L91.5409 34.8105H89.4021L86.797 30.1309L84.2401 34.8105H82.1657L85.7839 28.6515Z" fill="#14D9C1"/>
<path d="M55.8145 34.9713C55.1712 34.9713 54.5333 34.8587 53.9008 34.6336C53.2683 34.4084 52.8127 34.1565 52.5339 33.8778L53.3862 32.3501C53.6114 32.5538 53.9598 32.7682 54.4315 32.9933C54.9139 33.2077 55.3749 33.3149 55.8145 33.3149C56.3826 33.3149 56.8436 33.1809 57.1974 32.9129C57.5619 32.6449 57.7442 32.275 57.7442 31.8033C57.7442 31.4388 57.6477 31.1226 57.4547 30.8546C57.2617 30.5865 57.0259 30.3668 56.7471 30.1952C56.4684 30.013 56.0717 29.7932 55.5572 29.5359C54.9461 29.2357 54.528 29.0106 54.3028 28.8605C53.2629 28.1637 52.743 27.1988 52.743 25.966C52.743 24.9475 53.0807 24.1702 53.7561 23.6342C54.4315 23.0875 55.2838 22.8141 56.313 22.8141C57.4172 22.8141 58.3552 23.1303 59.1271 23.7629L58.2748 25.2262C58.0711 25.0118 57.7817 24.8296 57.4065 24.6795C57.042 24.5187 56.6507 24.4383 56.2326 24.4383C55.6965 24.4383 55.2731 24.5615 54.9622 24.8081C54.662 25.044 54.5119 25.3978 54.5119 25.8695C54.5119 26.2018 54.6084 26.502 54.8014 26.77C54.9943 27.0273 55.2355 27.2524 55.525 27.4454C55.8252 27.6384 56.2272 27.8742 56.7311 28.153C57.2135 28.421 57.5834 28.6354 57.8406 28.7962C58.0979 28.9463 58.3392 29.1285 58.5643 29.3429C58.8752 29.6217 59.1271 29.954 59.3201 30.34C59.5131 30.7259 59.6096 31.1494 59.6096 31.6104C59.6096 32.3286 59.4434 32.9397 59.111 33.4436C58.7894 33.9475 58.3392 34.328 57.7602 34.5853C57.1921 34.8426 56.5435 34.9713 55.8145 34.9713Z" fill="#0AABB6"/>
<path d="M62.5908 22.991H65.4371C67.8171 22.991 69.4788 23.5538 70.4222 24.6795C71.3764 25.8051 71.8534 27.1452 71.8534 28.6997C71.8534 29.7825 71.6497 30.7849 71.2424 31.7068C70.835 32.6181 70.1596 33.3632 69.2162 33.9421C68.2835 34.521 67.0559 34.8105 65.5336 34.8105H62.5908V22.991ZM65.7266 33.2185C67.206 33.2185 68.2781 32.8004 68.9428 31.9641C69.6182 31.1172 69.9559 30.0559 69.9559 28.7801C69.9559 27.5365 69.6182 26.5234 68.9428 25.7408C68.2674 24.9582 67.1953 24.5669 65.7266 24.5669H64.3919V33.2185H65.7266Z" fill="#0AABB6"/>
<path d="M74.6913 22.991H79.8694V24.5669H76.4763V27.8313H79.2101V29.4394H76.4763V33.2185H80.4001V34.8105H74.6913V22.991Z" fill="#0AABB6"/>
<path d="M85.7839 28.6515L82.3748 22.991H84.5457L86.7809 27.1238L89.0805 22.991H91.2032L87.778 28.6193L91.5409 34.8105H89.4021L86.797 30.1309L84.2401 34.8105H82.1657L85.7839 28.6515Z" fill="#0AABB6"/>
<path d="M10.0068 34.2006C6.13484 34.2006 0.771789 34.0382 1.06038 28.3772C1.28284 24.0878 -0.256328 9.17431 8.75023 5.56475C17.1676 2.18379 27.0339 4.90901 29.1623 9.34276C31.8618 14.9797 31.8318 26.9635 31.8318 26.9635C31.8318 26.9635 32.8539 34.339 22.717 34.1826L10.0068 34.2006Z" fill="#14D9C1"/>
<path d="M2.40724 18.9322L0.555426 18.487H0.507326C0.491824 18.4745 0.477714 18.4604 0.465239 18.4449C0.46269 18.4269 0.46269 18.4087 0.465239 18.3908C0.461986 18.3708 0.461986 18.3505 0.465239 18.3306L0.729786 17.5666C0.727523 17.5486 0.727523 17.5304 0.729786 17.5124C0.729786 17.5124 0.729786 17.5124 0.771873 17.4763H0.825984H0.886107L2.73191 17.7651H2.78602L2.8221 17.8072C2.82813 17.8268 2.82813 17.8478 2.8221 17.8674C2.82805 17.8849 2.82805 17.904 2.8221 17.9215L2.55755 18.848C2.55167 18.8661 2.54227 18.8828 2.52988 18.8973C2.5175 18.9117 2.50239 18.9236 2.4854 18.9322C2.46829 18.9395 2.44989 18.9432 2.43129 18.9432C2.4127 18.9432 2.39429 18.9395 2.37718 18.9322H2.40724Z" fill="#0AABB6"/>
<path d="M2.19075 21.5191L0.344942 21.0679H0.290833L0.254757 21.0258C0.24958 21.0081 0.24958 20.9893 0.254757 20.9716C0.24873 20.952 0.24873 20.9311 0.254757 20.9115L0.519302 20.1474C0.517316 20.1294 0.517316 20.1113 0.519302 20.0933C0.528452 20.0765 0.543423 20.0637 0.561388 20.0572H0.6155H0.675625L2.52143 20.352C2.53699 20.3465 2.55396 20.3465 2.56953 20.352C2.58765 20.3612 2.60239 20.3759 2.61161 20.3941C2.61863 20.4114 2.61863 20.4309 2.61161 20.4482C2.61757 20.4658 2.61757 20.4848 2.61161 20.5024L2.34106 21.4288C2.34564 21.4466 2.34564 21.4652 2.34106 21.483C2.33025 21.4999 2.31589 21.5143 2.29897 21.5251H2.24486H2.18473L2.19075 21.5191Z" fill="#0AABB6"/>
<path d="M1.94423 24.0818L0.0984207 23.6306H0.0443091C0.0288071 23.6182 0.0146966 23.604 0.00222252 23.5885V23.5344C-0.00074084 23.5144 -0.00074084 23.4942 0.00222252 23.4742L0.242719 22.6681C0.23948 22.6522 0.23948 22.6358 0.242719 22.6199C0.253527 22.603 0.267888 22.5886 0.284806 22.5778H0.338917C0.358444 22.5714 0.379514 22.5714 0.39904 22.5778L2.24485 22.8666H2.29896C2.29896 22.8666 2.32902 22.8666 2.33503 22.9087C2.34021 22.9264 2.34021 22.9452 2.33503 22.9628C2.34106 22.9824 2.34106 23.0034 2.33503 23.023L2.07049 23.9495C2.07373 23.9654 2.07373 23.9817 2.07049 23.9976L2.0284 24.0397C2.00881 24.0458 1.98786 24.0458 1.96827 24.0397H1.91416L1.94423 24.0818Z" fill="#0AABB6"/>
<path d="M30.3046 18.9322L32.1504 18.475H32.2046L32.2406 18.4329C32.244 18.413 32.244 18.3926 32.2406 18.3727C32.2436 18.3548 32.2436 18.3365 32.2406 18.3186L31.9761 17.5545C31.9784 17.5366 31.9784 17.5184 31.9761 17.5004L31.934 17.4643H31.8739H31.8198L29.974 17.7531H29.9198C29.9029 17.7639 29.8886 17.7782 29.8778 17.7952C29.8752 17.8131 29.8752 17.8314 29.8778 17.8493C29.8747 17.8693 29.8747 17.8895 29.8778 17.9095L30.1483 18.8359C30.1461 18.8539 30.1461 18.8721 30.1483 18.8901C30.1483 18.8901 30.1483 18.9202 30.1904 18.9262C30.2081 18.9314 30.2269 18.9314 30.2445 18.9262C30.2641 18.9322 30.2851 18.9322 30.3046 18.9262V18.9322Z" fill="#0AABB6"/>
<path d="M30.5331 21.519L32.3789 21.0678H32.427L32.4691 21.0257C32.4743 21.008 32.4743 20.9892 32.4691 20.9716C32.4751 20.952 32.4751 20.931 32.4691 20.9114L32.2046 20.1534C32.2089 20.1356 32.2089 20.117 32.2046 20.0993C32.1915 20.0822 32.1751 20.0679 32.1565 20.0571C32.1391 20.0501 32.1197 20.0501 32.1023 20.0571H32.0482L30.2024 20.3459H30.1483C30.1314 20.3567 30.117 20.3711 30.1062 20.388C30.1037 20.406 30.1037 20.4242 30.1062 20.4422V20.5023L30.3768 21.4288C30.3722 21.4465 30.3722 21.4652 30.3768 21.4829C30.3768 21.4829 30.3768 21.513 30.4189 21.519C30.4365 21.5242 30.4553 21.5242 30.473 21.519C30.4905 21.525 30.5096 21.525 30.5271 21.519H30.5331Z" fill="#0AABB6"/>
<path d="M30.7736 24.0818L32.6194 23.6306H32.6735L32.7156 23.5885V23.5344C32.7185 23.5144 32.7185 23.4942 32.7156 23.4742L32.451 22.7102C32.4533 22.6922 32.4533 22.674 32.451 22.6561C32.4402 22.6391 32.4258 22.6248 32.4089 22.614H32.3548H32.2947L30.4489 22.9027C30.433 22.8995 30.4167 22.8995 30.4008 22.9027C30.3839 22.9135 30.3695 22.9279 30.3587 22.9448C30.3535 22.9625 30.3535 22.9813 30.3587 22.999C30.3527 23.0186 30.3527 23.0395 30.3587 23.0591L30.6232 23.9856C30.621 24.0035 30.621 24.0217 30.6232 24.0397L30.6653 24.0818H30.7194H30.7796H30.7736Z" fill="#0AABB6"/>
<path d="M26.631 25.6399C26.4386 27.5109 25.0438 29.3157 23.5226 29.5202C18.4787 30.1975 13.362 30.1184 8.34135 29.2856C6.82623 29.0329 5.48546 27.186 5.33515 25.3091C5.07061 21.5491 4.94435 19.7082 4.6798 16.1167C4.61838 15.2471 4.84214 14.3811 5.31712 13.6502C5.52319 13.3133 5.79681 13.0229 6.12071 12.7971C6.44461 12.5714 6.81177 12.4153 7.19899 12.3387C13.1633 11.3701 19.0434 11.1355 24.9656 12.2725C26.4807 12.5613 27.7313 14.6789 27.5449 16.4476C27.1842 20.0511 26.9978 21.892 26.631 25.6399Z" fill="white"/>
<path d="M27.1422 6.97851L27.6292 1.22125L25.591 3.85022L23.9977 6.20246" fill="#0AABB6"/>
<path d="M10.2112 6.20249L8.61791 3.58556L6.57971 0.956604V6.97252" fill="#0AABB6"/>
<path d="M18.6947 6.55137L18.2799 3.05008L16.903 0L15.7547 3.00797L15.0632 6.55137" fill="#0AABB6"/>
<path d="M6.60381 6.97851L17.7387 8.78329L27.1722 6.97851L27.0038 6.71381C27.0038 6.71381 26.0238 3.92843 16.9451 4.05477C9.00275 4.16306 6.60381 6.71381 6.60381 6.71381V6.97851Z" fill="#0AABB6"/>
<path d="M22.6725 18.8623C22.6946 19.4593 22.5474 20.0504 22.2479 20.5672C22.0994 20.839 21.8815 21.0665 21.6164 21.2263C21.4213 21.3504 21.1943 21.4148 20.9631 21.4115C20.7319 21.4054 20.5073 21.3336 20.3153 21.2045C19.9712 20.9769 19.7067 20.6475 19.5586 20.2622C19.3352 19.7368 19.2491 19.1633 19.3082 18.5954C19.3396 18.0359 19.5346 17.498 19.8689 17.0485C20.0406 16.8004 20.2836 16.6104 20.5657 16.5038C20.7666 16.4333 20.9824 16.4164 21.1918 16.4547C21.3941 16.4959 21.5819 16.5899 21.7361 16.7271C22.0325 16.9664 22.2599 17.2804 22.3949 17.6367C22.5534 18.02 22.633 18.4313 22.6289 18.846L22.6725 18.8623ZM22.3731 18.5791C22.3778 18.5283 22.3778 18.4773 22.3731 18.4266C22.3564 18.1789 22.2522 17.9453 22.0791 17.7675C22.0084 17.6961 21.9128 17.6551 21.8124 17.6531C21.7098 17.6477 21.6089 17.6807 21.5293 17.7457C21.452 17.8057 21.3888 17.8819 21.3442 17.969C21.2152 18.2206 21.1695 18.5067 21.2135 18.7861C21.229 18.9676 21.2868 19.143 21.3823 19.2981C21.4199 19.3752 21.4783 19.4401 21.551 19.4855C21.6237 19.531 21.7076 19.5551 21.7933 19.5551C21.879 19.5551 21.963 19.531 22.0356 19.4855C22.1083 19.4401 22.1668 19.3752 22.2043 19.2981C22.3334 19.0813 22.3959 18.8312 22.384 18.5791H22.3731ZM20.8325 19.5868C20.8276 19.6835 20.8586 19.7785 20.9196 19.8537C20.9406 19.8765 20.9644 19.8966 20.9903 19.9136C21.0209 19.9192 21.0523 19.9192 21.0829 19.9136C21.1132 19.9219 21.1452 19.9219 21.1754 19.9136C21.2062 19.907 21.2345 19.8919 21.2571 19.87C21.2971 19.8295 21.3286 19.7813 21.3496 19.7284C21.3719 19.6768 21.3831 19.6212 21.3823 19.565C21.3824 19.5089 21.3713 19.4533 21.3496 19.4016C21.3272 19.3494 21.2959 19.3014 21.2571 19.26C21.2139 19.225 21.1602 19.2058 21.1047 19.2055C21.0509 19.2062 20.999 19.2254 20.9577 19.26C20.9137 19.3016 20.8785 19.3516 20.8542 19.407C20.8406 19.4625 20.8406 19.5204 20.8542 19.5759L20.8325 19.5868ZM22.0138 20.4147C22.0203 20.3592 22.0068 20.3032 21.9757 20.2568C21.9437 20.211 21.8979 20.1766 21.845 20.1587C21.8197 20.1562 21.7942 20.1587 21.7699 20.1662C21.7455 20.1737 21.723 20.1859 21.7035 20.2023C21.6833 20.218 21.6666 20.2377 21.6544 20.2602C21.6422 20.2827 21.6348 20.3075 21.6327 20.333C21.6164 20.3844 21.6164 20.4396 21.6327 20.491C21.6471 20.5414 21.6754 20.5867 21.7144 20.6217C21.7375 20.6418 21.7658 20.655 21.796 20.6598C21.8264 20.6679 21.8583 20.6679 21.8886 20.6598C21.9271 20.6377 21.959 20.6058 21.9811 20.5672C22.0028 20.5271 22.014 20.4821 22.0138 20.4365V20.4147Z" fill="#627567"/>
<path d="M12.1006 18.857C12.1189 19.4529 11.974 20.0425 11.6815 20.5619C11.5507 20.7973 11.3728 21.0031 11.1588 21.1665C10.9189 21.3475 10.6218 21.436 10.322 21.416C10.0222 21.396 9.73955 21.2688 9.5257 21.0576C9.20109 20.7543 8.96894 20.3653 8.85611 19.9355C8.60162 19.1171 8.6698 18.2323 9.04665 17.4625C9.19881 17.1321 9.44254 16.8523 9.7489 16.6564C9.96858 16.5148 10.2288 16.4497 10.4893 16.4712C10.7494 16.4871 10.9976 16.5864 11.197 16.7544C11.4908 16.9984 11.7175 17.3134 11.8557 17.6695C12.0138 18.0511 12.0952 18.4602 12.0952 18.8733L12.1006 18.857ZM10.6145 18.5955V18.7045C10.6208 18.9173 10.6848 19.1243 10.7996 19.3036C10.8373 19.3781 10.895 19.4406 10.9661 19.4842C11.0372 19.5279 11.119 19.551 11.2024 19.551C11.2858 19.551 11.3676 19.5279 11.4387 19.4842C11.5098 19.4406 11.5675 19.3781 11.6052 19.3036C11.7277 19.1155 11.7938 18.8963 11.7958 18.6718C11.8229 18.3771 11.7416 18.0827 11.5671 17.8438C11.5286 17.7815 11.4741 17.7307 11.4093 17.6968C11.3459 17.6617 11.2748 17.643 11.2024 17.6423C11.1302 17.6442 11.0594 17.6629 10.9955 17.6968C10.9334 17.7325 10.881 17.783 10.8431 17.8438C10.6797 18.0591 10.5986 18.3257 10.6145 18.5955ZM10.2552 19.5869C10.2503 19.6836 10.2813 19.7786 10.3423 19.8538C10.3633 19.8766 10.3871 19.8967 10.413 19.9137C10.4409 19.9308 10.4729 19.9402 10.5056 19.9409C10.5359 19.949 10.5678 19.949 10.5981 19.9409C10.6289 19.9343 10.6572 19.9192 10.6798 19.8974C10.7198 19.8568 10.7513 19.8087 10.7723 19.7557C10.794 19.704 10.8051 19.6484 10.805 19.5923C10.8053 19.5344 10.7942 19.4771 10.7723 19.4235C10.7479 19.3727 10.7148 19.3266 10.6743 19.2873C10.633 19.2487 10.5785 19.2273 10.5219 19.2274C10.4671 19.2281 10.4147 19.2495 10.3749 19.2873C10.3316 19.3261 10.298 19.3747 10.2769 19.4289C10.2638 19.4844 10.2638 19.5423 10.2769 19.5978L10.2552 19.5869ZM11.0445 20.4203C11.0421 20.4711 11.0575 20.5212 11.0881 20.5619C11.1006 20.5906 11.1211 20.6151 11.1472 20.6325C11.1732 20.6499 11.2037 20.6594 11.2351 20.6599C11.2617 20.668 11.2901 20.668 11.3167 20.6599C11.346 20.6473 11.3694 20.6239 11.382 20.5946C11.4187 20.5399 11.4377 20.4752 11.4365 20.4094C11.4307 20.3429 11.404 20.28 11.3603 20.2296C11.3292 20.2002 11.2887 20.1828 11.2459 20.1806C11.1371 20.1806 11.05 20.2841 11.05 20.4421L11.0445 20.4203Z" fill="#627567"/>
<path d="M22.3731 18.5791C22.3778 18.5284 22.3778 18.4774 22.3731 18.4266C22.3563 18.179 22.2521 17.9454 22.0791 17.7675C22.0084 17.6962 21.9127 17.6552 21.8124 17.6532C21.7098 17.6478 21.6089 17.6808 21.5293 17.7458C21.452 17.8058 21.3888 17.882 21.3442 17.9691C21.2152 18.2207 21.1695 18.5068 21.2135 18.7861C21.229 18.9677 21.2868 19.143 21.3823 19.2982C21.4199 19.3752 21.4783 19.4402 21.551 19.4856C21.6236 19.5311 21.7076 19.5551 21.7933 19.5551C21.879 19.5551 21.963 19.5311 22.0356 19.4856C22.1083 19.4402 22.1667 19.3752 22.2043 19.2982C22.3334 19.0813 22.3959 18.8313 22.384 18.5791H22.3731ZM20.8325 19.5869C20.8276 19.6835 20.8586 19.7786 20.9196 19.8538C20.9406 19.8766 20.9644 19.8967 20.9903 19.9137C21.0209 19.9193 21.0523 19.9193 21.0829 19.9137C21.1132 19.922 21.1451 19.922 21.1754 19.9137C21.2062 19.907 21.2345 19.8919 21.2571 19.8701C21.2971 19.8296 21.3286 19.7814 21.3496 19.7285C21.3719 19.6769 21.3831 19.6212 21.3823 19.5651C21.3824 19.509 21.3713 19.4534 21.3496 19.4016C21.3272 19.3494 21.2959 19.3015 21.2571 19.26C21.2139 19.2251 21.1602 19.2059 21.1047 19.2056C21.0509 19.2063 20.999 19.2255 20.9577 19.26C20.9137 19.3016 20.8785 19.3516 20.8542 19.4071C20.8406 19.4626 20.8406 19.5205 20.8542 19.576L20.8325 19.5869ZM22.0138 20.4148C22.0203 20.3593 22.0068 20.3033 21.9757 20.2568C21.9437 20.211 21.8979 20.1767 21.845 20.1588C21.8197 20.1562 21.7942 20.1588 21.7698 20.1663C21.7455 20.1737 21.723 20.186 21.7035 20.2024C21.6833 20.2181 21.6666 20.2378 21.6544 20.2603C21.6422 20.2828 21.6348 20.3076 21.6327 20.3331C21.6164 20.3845 21.6164 20.4397 21.6327 20.4911C21.6471 20.5415 21.6754 20.5868 21.7144 20.6218C21.7375 20.6419 21.7658 20.6551 21.796 20.6599C21.8263 20.668 21.8582 20.668 21.8886 20.6599C21.9271 20.6378 21.959 20.6058 21.9811 20.5673C22.0028 20.5272 22.014 20.4822 22.0138 20.4366V20.4148Z" fill="white"/>
<path d="M10.6145 18.5954V18.7044C10.6209 18.9172 10.6848 19.1243 10.7996 19.3036C10.8373 19.378 10.895 19.4405 10.9661 19.4841C11.0372 19.5278 11.119 19.5509 11.2024 19.5509C11.2858 19.5509 11.3676 19.5278 11.4387 19.4841C11.5098 19.4405 11.5675 19.378 11.6052 19.3036C11.7277 19.1154 11.7938 18.8962 11.7958 18.6717C11.8229 18.3771 11.7416 18.0827 11.5671 17.8437C11.5286 17.7815 11.4741 17.7307 11.4093 17.6967C11.3459 17.6616 11.2748 17.6429 11.2024 17.6422C11.1302 17.6442 11.0594 17.6628 10.9955 17.6967C10.9334 17.7324 10.8811 17.7829 10.8431 17.8437C10.6797 18.059 10.5986 18.3256 10.6145 18.5954ZM10.2552 19.5868C10.2503 19.6835 10.2813 19.7785 10.3423 19.8537C10.3633 19.8765 10.3871 19.8966 10.4131 19.9136C10.441 19.9307 10.4729 19.9401 10.5056 19.9409C10.5359 19.9489 10.5678 19.9489 10.5981 19.9409C10.6289 19.9342 10.6572 19.9191 10.6798 19.8973C10.7198 19.8568 10.7513 19.8086 10.7723 19.7557C10.794 19.7039 10.8052 19.6484 10.805 19.5922C10.8053 19.5344 10.7942 19.477 10.7723 19.4234C10.7479 19.3726 10.7148 19.3265 10.6744 19.2872C10.633 19.2486 10.5785 19.2272 10.5219 19.2273C10.4672 19.2281 10.4147 19.2495 10.3749 19.2872C10.3316 19.3261 10.298 19.3746 10.277 19.4288C10.2638 19.4843 10.2638 19.5422 10.277 19.5977L10.2552 19.5868ZM11.0445 20.4202C11.0421 20.471 11.0575 20.5211 11.0881 20.5618C11.1006 20.5905 11.1211 20.6151 11.1472 20.6324C11.1732 20.6498 11.2038 20.6593 11.2351 20.6599C11.2617 20.6679 11.2901 20.6679 11.3167 20.6599C11.346 20.6472 11.3694 20.6238 11.3821 20.5945C11.4187 20.5398 11.4377 20.4752 11.4365 20.4093C11.4307 20.3428 11.404 20.2799 11.3603 20.2295C11.3292 20.2001 11.2887 20.1827 11.246 20.1805C11.1371 20.1805 11.05 20.284 11.05 20.442L11.0445 20.4202Z" fill="white"/>
<path d="M15.4918 25.8667L15.4918 25.8666C15.2971 25.8557 15.1031 25.8291 14.9109 25.787C14.5933 25.7292 14.2853 25.6069 13.9978 25.4252C13.7399 25.268 13.5267 25.0147 13.3839 24.7008L13.3837 24.7004L13.3837 24.7004C13.2919 24.4946 13.2476 24.2596 13.2553 24.0233C13.2533 23.9842 13.2576 23.9448 13.2681 23.9075C13.2789 23.8693 13.2962 23.8336 13.3194 23.8032C13.3427 23.7728 13.3719 23.7479 13.4056 23.7317C13.4391 23.7155 13.4758 23.7086 13.5128 23.7122C13.5787 23.7169 13.6358 23.7549 13.6742 23.8098C13.7126 23.8647 13.7315 23.9348 13.7293 24.0046L13.7293 24.0053C13.7242 24.1216 13.739 24.2376 13.7721 24.345C13.8053 24.4525 13.8558 24.5479 13.9194 24.625L13.9204 24.6262L13.9204 24.6263C14.0491 24.7909 14.2022 24.9165 14.3687 24.9961L14.3694 24.9964L14.3694 24.9964C14.6232 25.1218 14.888 25.2035 15.1572 25.2398L15.1582 25.2399L15.1582 25.2399C15.3836 25.274 15.6101 25.2933 15.837 25.2978L15.8378 25.2978C16.1838 25.3096 16.5297 25.2685 16.8686 25.1754L16.8701 25.175L16.8701 25.175C17.1226 25.1125 17.3624 24.9749 17.5705 24.771L17.571 24.7705C17.7388 24.6094 17.8557 24.3677 17.894 24.0931C17.8966 24.0715 17.8982 24.0492 17.8997 24.0255C17.8999 24.0229 17.9001 24.0203 17.9002 24.0176L15.4918 25.8667ZM15.4918 25.8667L15.4944 25.8667L15.4952 25.8052L15.4944 25.8667L15.4945 25.8667L15.4945 25.8667L15.4948 25.8667L15.4958 25.8667L15.4999 25.8668L15.5154 25.8669L15.5724 25.8675C15.6207 25.8678 15.6876 25.8682 15.7624 25.8681C15.9114 25.868 16.0929 25.8661 16.2187 25.8591C16.3456 25.8521 16.4908 25.8334 16.6035 25.8167C16.66 25.8083 16.7088 25.8003 16.7434 25.7944L16.7839 25.7874L16.7949 25.7854L16.7977 25.7849L16.7985 25.7848L16.7987 25.7847L16.7987 25.7847L16.7987 25.7847L16.7876 25.7242L16.7988 25.7847L16.7999 25.7845C16.9324 25.7574 17.0631 25.7178 17.191 25.6659L15.4918 25.8667ZM17.9862 23.7636C17.9393 23.8127 17.9116 23.8808 17.9052 23.952L18.3136 24.0051L18.375 24.0095C18.375 24.0092 18.375 24.0089 18.375 24.0085C18.3799 23.9373 18.3634 23.8649 18.3269 23.8067C18.2901 23.7481 18.2335 23.7055 18.1663 23.6963C18.0984 23.687 18.0337 23.7139 17.9862 23.7636L17.9862 23.7636Z" fill="#627567" stroke="#627567" stroke-width="0.122972"/>
</svg>
